<svg width="207" height="208" xmlns="http://www.w3.org/2000/svg" xmlns:xlink="http://www.w3.org/1999/xlink" xml:space="preserve" overflow="hidden"><g transform="translate(-1670 -368)"><path d="M1673.5 399.016C1673.5 383.819 1685.82 371.5 1701.02 371.5L1845.98 371.5C1861.18 371.5 1873.5 383.819 1873.5 399.016L1873.5 544.984C1873.5 560.181 1861.18 572.5 1845.98 572.5L1701.02 572.5C1685.82 572.5 1673.5 560.181 1673.5 544.984Z" stroke="#000000" stroke-width="6.875" stroke-miterlimit="8" fill="none" fill-rule="evenodd"/><path d="M1697.5 472C1697.5 430.302 1731.53 396.5 1773.5 396.5 1815.47 396.5 1849.5 430.302 1849.5 472 1849.5 513.698 1815.47 547.5 1773.5 547.5 1731.53 547.5 1697.5 513.698 1697.5 472Z" stroke="#000000" stroke-width="6.875" stroke-miterlimit="8" fill="none" fill-rule="evenodd"/><path d="M1799.24 493.268 1761.55 493.268 1802.71 441.786C1804.25 439.855 1804.68 437.097 1803.85 434.589 1803.04 432.073 1801.15 430.5 1798.97 430.5L1748.82 430.5C1745.91 430.5 1743.54 433.464 1743.54 437.097 1743.54 440.729 1745.91 443.693 1748.81 443.693L1786.25 443.693 1745.07 495.221C1743.51 497.282 1743.08 499.979 1743.92 502.419 1744.75 504.927 1746.63 506.5 1748.8 506.5L1799.23 506.5C1802.13 506.5 1804.5 503.536 1804.5 499.911 1804.52 496.232 1802.15 493.268 1799.23 493.268Z" stroke="#000000" stroke-width="6.875" stroke-miterlimit="8" fill="none" fill-rule="evenodd"/></g></svg>